<mxfile host="app.diagrams.net" modified="2021-07-22T21:04:51.073Z" agent="5.0 (Windows NT 10.0; Win64; x64) AppleWebKit/537.36 (KHTML, like Gecko) Chrome/91.0.4472.124 Safari/537.36" etag="yYlpodZ-gHbVz97IpDN6" version="14.9.0" type="github" pages="2">
  <diagram id="AK-iGJzDlFNvxhwOBNrH" name="Repository">
    <mxGraphModel dx="868" dy="482" grid="1" gridSize="10" guides="1" tooltips="1" connect="1" arrows="1" fold="1" page="1" pageScale="1" pageWidth="1169" pageHeight="827" math="0" shadow="0">
      <root>
        <mxCell id="0" />
        <mxCell id="1" parent="0" />
        <mxCell id="6JdgwQuU5q2KGwENqL2I-1" value="&lt;p style=&quot;margin: 0px ; margin-top: 4px ; text-align: center&quot;&gt;&lt;i&gt;&amp;lt;&amp;lt;Interface&amp;gt;&amp;gt;&lt;/i&gt;&lt;br&gt;&lt;b&gt;IRepository&amp;lt;TEntity&amp;gt;&lt;/b&gt;&lt;br&gt;&lt;/p&gt;&lt;hr size=&quot;1&quot;&gt;&lt;p style=&quot;margin: 0px ; margin-left: 4px&quot;&gt;+ Add(TEntity): bool&lt;br&gt;&lt;/p&gt;&lt;p style=&quot;margin: 0px ; margin-left: 4px&quot;&gt;&lt;span&gt;+ Update(TEntity): bool&lt;/span&gt;&lt;br&gt;&lt;/p&gt;&lt;p style=&quot;margin: 0px ; margin-left: 4px&quot;&gt;&lt;/p&gt;&amp;nbsp;+ Remove(TEntity): bool&lt;br&gt;&amp;nbsp;+ Get(Func&amp;lt;IQueryable&amp;lt;TEntity&amp;gt;, IQueryable&amp;lt;TEntity&amp;gt;&amp;gt;): List&amp;lt;TEntity&amp;gt;&amp;nbsp;" style="verticalAlign=top;align=left;overflow=fill;fontSize=12;fontFamily=Helvetica;html=1;" parent="1" vertex="1">
          <mxGeometry x="200" y="80" width="390" height="110" as="geometry" />
        </mxCell>
        <mxCell id="6JdgwQuU5q2KGwENqL2I-5" value="&lt;p style=&quot;margin: 0px ; margin-top: 4px ; text-align: center&quot;&gt;&lt;b&gt;XmlRepository&amp;lt;TEntity&amp;gt;&amp;nbsp;&lt;/b&gt;&lt;br&gt;&lt;/p&gt;&lt;hr size=&quot;1&quot;&gt;&lt;p style=&quot;margin: 0px 0px 0px 4px&quot;&gt;+ Add(TEntity): bool&lt;br&gt;&lt;/p&gt;&lt;p style=&quot;margin: 0px 0px 0px 4px&quot;&gt;+ Update(TEntity): bool&lt;br&gt;&lt;/p&gt;&lt;p style=&quot;margin: 0px 0px 0px 4px&quot;&gt;&lt;/p&gt;&lt;p style=&quot;margin: 0px ; margin-left: 4px&quot;&gt;+ Remove(TEntity): bool&lt;br&gt;+ Get(Func&amp;lt;IQueryable&amp;lt;TEntity&amp;gt;, IQueryable&amp;lt;TEntity&amp;gt;&amp;gt;): List&amp;lt;TEntity&amp;gt;&lt;br&gt;&lt;/p&gt;" style="verticalAlign=top;align=left;overflow=fill;fontSize=12;fontFamily=Helvetica;html=1;" parent="1" vertex="1">
          <mxGeometry x="600" y="320" width="390" height="90" as="geometry" />
        </mxCell>
        <mxCell id="6JdgwQuU5q2KGwENqL2I-6" value="" style="endArrow=block;dashed=1;endFill=0;endSize=12;html=1;entryX=0.5;entryY=1;entryDx=0;entryDy=0;edgeStyle=orthogonalEdgeStyle;rounded=0;" parent="1" source="VGBqMwCMSt9ttKQkOgo9-5" target="6JdgwQuU5q2KGwENqL2I-1" edge="1">
          <mxGeometry width="160" relative="1" as="geometry">
            <mxPoint x="80" y="490" as="sourcePoint" />
            <mxPoint x="240" y="490" as="targetPoint" />
          </mxGeometry>
        </mxCell>
        <mxCell id="6JdgwQuU5q2KGwENqL2I-7" value="" style="endArrow=block;dashed=1;endFill=0;endSize=12;html=1;exitX=0.5;exitY=0;exitDx=0;exitDy=0;edgeStyle=orthogonalEdgeStyle;rounded=0;" parent="1" source="6JdgwQuU5q2KGwENqL2I-5" target="6JdgwQuU5q2KGwENqL2I-1" edge="1">
          <mxGeometry width="160" relative="1" as="geometry">
            <mxPoint x="250" y="481.03999999999996" as="sourcePoint" />
            <mxPoint x="447.03" y="400" as="targetPoint" />
          </mxGeometry>
        </mxCell>
        <mxCell id="xq73Ia8YPxoX5879JOja-1" value="&lt;p style=&quot;margin: 0px ; margin-top: 4px ; text-align: center&quot;&gt;&lt;i&gt;&amp;lt;&amp;lt;Interface&amp;gt;&amp;gt;&lt;/i&gt;&lt;br&gt;&lt;b&gt;IFileParser&lt;/b&gt;&lt;/p&gt;&lt;hr size=&quot;1&quot;&gt;&lt;p style=&quot;margin: 0px ; margin-left: 4px&quot;&gt;+ Parse(String): Xml&lt;br&gt;&lt;/p&gt;" style="verticalAlign=top;align=left;overflow=fill;fontSize=12;fontFamily=Helvetica;html=1;" parent="1" vertex="1">
          <mxGeometry x="370" y="1057" width="190" height="80" as="geometry" />
        </mxCell>
        <mxCell id="xq73Ia8YPxoX5879JOja-2" value="&lt;p style=&quot;margin: 0px ; margin-top: 4px ; text-align: center&quot;&gt;&lt;b&gt;3dsFileParser&lt;/b&gt;&lt;/p&gt;&lt;hr size=&quot;1&quot;&gt;&lt;p style=&quot;margin: 0px ; margin-left: 4px&quot;&gt;+ Parse(String): Xml&lt;br&gt;&lt;/p&gt;" style="verticalAlign=top;align=left;overflow=fill;fontSize=12;fontFamily=Helvetica;html=1;" parent="1" vertex="1">
          <mxGeometry x="250" y="1217" width="190" height="60" as="geometry" />
        </mxCell>
        <mxCell id="xq73Ia8YPxoX5879JOja-3" value="&lt;p style=&quot;outline: 0px ; margin: 4px 0px 0px ; text-align: center&quot;&gt;&lt;b style=&quot;outline: 0px&quot;&gt;ObjFileParser&lt;/b&gt;&lt;/p&gt;&lt;hr size=&quot;1&quot;&gt;&lt;p style=&quot;margin: 0px 0px 0px 4px&quot;&gt;+ Parse(String): Xml&lt;/p&gt;" style="verticalAlign=top;align=left;overflow=fill;fontSize=12;fontFamily=Helvetica;html=1;" parent="1" vertex="1">
          <mxGeometry x="480" y="1217" width="170" height="60" as="geometry" />
        </mxCell>
        <mxCell id="xq73Ia8YPxoX5879JOja-4" value="" style="endArrow=block;dashed=1;endFill=0;endSize=12;html=1;entryX=0.5;entryY=1;entryDx=0;entryDy=0;exitX=0.463;exitY=0.013;exitDx=0;exitDy=0;exitPerimeter=0;edgeStyle=orthogonalEdgeStyle;rounded=0;" parent="1" source="xq73Ia8YPxoX5879JOja-2" target="xq73Ia8YPxoX5879JOja-1" edge="1">
          <mxGeometry width="160" relative="1" as="geometry">
            <mxPoint x="250" y="1407" as="sourcePoint" />
            <mxPoint x="410" y="1407" as="targetPoint" />
          </mxGeometry>
        </mxCell>
        <mxCell id="xq73Ia8YPxoX5879JOja-5" value="" style="endArrow=block;dashed=1;endFill=0;endSize=12;html=1;exitX=0.5;exitY=0;exitDx=0;exitDy=0;edgeStyle=orthogonalEdgeStyle;rounded=0;" parent="1" source="xq73Ia8YPxoX5879JOja-3" target="xq73Ia8YPxoX5879JOja-1" edge="1">
          <mxGeometry width="160" relative="1" as="geometry">
            <mxPoint x="420" y="1398.04" as="sourcePoint" />
            <mxPoint x="617.03" y="1317" as="targetPoint" />
          </mxGeometry>
        </mxCell>
        <mxCell id="ouq7zTjCDgWqAzeL-4EP-1" value="&lt;p style=&quot;margin: 0px ; margin-top: 4px ; text-align: center&quot;&gt;&lt;i&gt;&amp;lt;&amp;lt;Interface&amp;gt;&amp;gt;&lt;/i&gt;&lt;br&gt;&lt;b&gt;IModelBuilder&lt;/b&gt;&lt;/p&gt;&lt;hr size=&quot;1&quot;&gt;&lt;p style=&quot;margin: 0px ; margin-left: 4px&quot;&gt;+ Build(Xml): IModel&lt;br&gt;&lt;/p&gt;" style="verticalAlign=top;align=left;overflow=fill;fontSize=12;fontFamily=Helvetica;html=1;" parent="1" vertex="1">
          <mxGeometry x="730" y="1150" width="190" height="80" as="geometry" />
        </mxCell>
        <mxCell id="ouq7zTjCDgWqAzeL-4EP-2" value="&lt;p style=&quot;margin: 0px ; margin-top: 4px ; text-align: center&quot;&gt;&lt;b&gt;3dModelBuilder&lt;/b&gt;&lt;/p&gt;&lt;hr size=&quot;1&quot;&gt;&lt;p style=&quot;margin: 0px ; margin-left: 4px&quot;&gt;+ Build(Xml): IModel&lt;br&gt;&lt;/p&gt;" style="verticalAlign=top;align=left;overflow=fill;fontSize=12;fontFamily=Helvetica;html=1;" parent="1" vertex="1">
          <mxGeometry x="610" y="1310" width="190" height="60" as="geometry" />
        </mxCell>
        <mxCell id="ouq7zTjCDgWqAzeL-4EP-3" value="&lt;p style=&quot;outline: 0px ; margin: 4px 0px 0px ; text-align: center&quot;&gt;&lt;b style=&quot;outline: 0px&quot;&gt;SceneModelBuilder&lt;/b&gt;&lt;/p&gt;&lt;hr size=&quot;1&quot;&gt;&lt;p style=&quot;margin: 0px 0px 0px 4px&quot;&gt;+ Build(Xml): IModel&lt;br&gt;&lt;/p&gt;" style="verticalAlign=top;align=left;overflow=fill;fontSize=12;fontFamily=Helvetica;html=1;" parent="1" vertex="1">
          <mxGeometry x="840" y="1310" width="170" height="60" as="geometry" />
        </mxCell>
        <mxCell id="ouq7zTjCDgWqAzeL-4EP-4" value="" style="endArrow=block;dashed=1;endFill=0;endSize=12;html=1;entryX=0.5;entryY=1;entryDx=0;entryDy=0;exitX=0.463;exitY=0.013;exitDx=0;exitDy=0;exitPerimeter=0;edgeStyle=orthogonalEdgeStyle;rounded=0;" parent="1" source="ouq7zTjCDgWqAzeL-4EP-2" target="ouq7zTjCDgWqAzeL-4EP-1" edge="1">
          <mxGeometry width="160" relative="1" as="geometry">
            <mxPoint x="610" y="1500" as="sourcePoint" />
            <mxPoint x="770" y="1500" as="targetPoint" />
          </mxGeometry>
        </mxCell>
        <mxCell id="ouq7zTjCDgWqAzeL-4EP-5" value="" style="endArrow=block;dashed=1;endFill=0;endSize=12;html=1;exitX=0.5;exitY=0;exitDx=0;exitDy=0;edgeStyle=orthogonalEdgeStyle;rounded=0;" parent="1" source="ouq7zTjCDgWqAzeL-4EP-3" target="ouq7zTjCDgWqAzeL-4EP-1" edge="1">
          <mxGeometry width="160" relative="1" as="geometry">
            <mxPoint x="780" y="1491.04" as="sourcePoint" />
            <mxPoint x="977.03" y="1410" as="targetPoint" />
          </mxGeometry>
        </mxCell>
        <mxCell id="W3vybs4YoK9HtLYrzw3h-2" value="1" style="endArrow=none;html=1;endSize=12;startArrow=diamondThin;startSize=14;startFill=0;edgeStyle=orthogonalEdgeStyle;align=left;verticalAlign=bottom;endFill=0;rounded=0;" parent="1" target="xq73Ia8YPxoX5879JOja-1" edge="1">
          <mxGeometry x="-1" y="3" relative="1" as="geometry">
            <mxPoint x="250" y="1080" as="sourcePoint" />
            <mxPoint x="640" y="1000" as="targetPoint" />
            <Array as="points">
              <mxPoint x="290" y="984" />
              <mxPoint x="465" y="984" />
            </Array>
          </mxGeometry>
        </mxCell>
        <mxCell id="W3vybs4YoK9HtLYrzw3h-3" value="1" style="endArrow=none;html=1;endSize=12;startArrow=diamondThin;startSize=14;startFill=0;edgeStyle=orthogonalEdgeStyle;align=left;verticalAlign=bottom;endFill=0;rounded=0;" parent="1" target="xq73Ia8YPxoX5879JOja-1" edge="1">
          <mxGeometry x="-1" y="3" relative="1" as="geometry">
            <mxPoint x="580" y="1090" as="sourcePoint" />
            <mxPoint x="475" y="980" as="targetPoint" />
            <Array as="points">
              <mxPoint x="590" y="984" />
              <mxPoint x="465" y="984" />
            </Array>
          </mxGeometry>
        </mxCell>
        <mxCell id="W3vybs4YoK9HtLYrzw3h-4" value="1" style="endArrow=none;html=1;endSize=12;startArrow=diamondThin;startSize=14;startFill=0;edgeStyle=orthogonalEdgeStyle;align=left;verticalAlign=bottom;endFill=0;rounded=0;entryX=0;entryY=0.5;entryDx=0;entryDy=0;" parent="1" target="ouq7zTjCDgWqAzeL-4EP-1" edge="1">
          <mxGeometry x="-1" y="3" relative="1" as="geometry">
            <mxPoint x="700" y="1050" as="sourcePoint" />
            <mxPoint x="485" y="990" as="targetPoint" />
            <Array as="points">
              <mxPoint x="770" y="1050" />
              <mxPoint x="770" y="950" />
              <mxPoint x="630" y="950" />
              <mxPoint x="630" y="1190" />
            </Array>
          </mxGeometry>
        </mxCell>
        <mxCell id="W3vybs4YoK9HtLYrzw3h-5" value="1" style="endArrow=none;html=1;endSize=12;startArrow=diamondThin;startSize=14;startFill=0;edgeStyle=orthogonalEdgeStyle;align=left;verticalAlign=bottom;endFill=0;rounded=0;" parent="1" target="ouq7zTjCDgWqAzeL-4EP-1" edge="1">
          <mxGeometry x="-1" y="3" relative="1" as="geometry">
            <mxPoint x="940" y="1010" as="sourcePoint" />
            <mxPoint x="740" y="1200" as="targetPoint" />
            <Array as="points">
              <mxPoint x="830" y="950" />
              <mxPoint x="630" y="950" />
              <mxPoint x="630" y="1190" />
            </Array>
          </mxGeometry>
        </mxCell>
        <mxCell id="VGBqMwCMSt9ttKQkOgo9-5" value="&lt;p style=&quot;margin: 0px ; margin-top: 4px ; text-align: center&quot;&gt;&lt;i&gt;&amp;lt;&amp;lt;Interface&amp;gt;&amp;gt;&lt;/i&gt;&lt;br&gt;&lt;b&gt;IDbRepository&amp;lt;TEntity&amp;gt;&amp;nbsp;&lt;/b&gt;&lt;br&gt;&lt;/p&gt;&lt;hr size=&quot;1&quot;&gt;&lt;p style=&quot;margin: 0px ; margin-left: 4px&quot;&gt;+ Table: IQueryable&amp;lt;TEntity&amp;gt;&amp;nbsp;&lt;br&gt;&lt;/p&gt;&lt;hr size=&quot;1&quot;&gt;&lt;p style=&quot;margin: 0px 0px 0px 4px&quot;&gt;+ Add(TEntity): bool&lt;br&gt;&lt;/p&gt;&lt;p style=&quot;outline: 0px ; margin: 0px 0px 0px 4px&quot;&gt;+ Update(TEntity): bool&lt;/p&gt;&lt;p style=&quot;margin: 0px 0px 0px 4px&quot;&gt;+ Remove(TEntity): bool&lt;/p&gt;&lt;p style=&quot;margin: 0px 0px 0px 4px&quot;&gt;+ Get(Func&amp;lt;IQueryable&amp;lt;TEntity&amp;gt;, IQueryable&amp;lt;TEntity&amp;gt;&amp;gt;): List&amp;lt;TEntity&amp;gt;&amp;nbsp;&lt;/p&gt;" style="verticalAlign=top;align=left;overflow=fill;fontSize=12;fontFamily=Helvetica;html=1;" parent="1" vertex="1">
          <mxGeometry x="100" y="320" width="390" height="130" as="geometry" />
        </mxCell>
        <mxCell id="VGBqMwCMSt9ttKQkOgo9-6" value="&lt;p style=&quot;margin: 0px ; margin-top: 4px ; text-align: center&quot;&gt;&lt;b&gt;EfRepository&amp;lt;TContext, TEntity&amp;gt;&amp;nbsp;&lt;/b&gt;&lt;br&gt;&lt;/p&gt;&lt;hr size=&quot;1&quot;&gt;&lt;p style=&quot;margin: 0px 0px 0px 4px&quot;&gt;+&amp;nbsp;EfRepository(TContext): void&lt;/p&gt;&lt;p style=&quot;margin: 0px 0px 0px 4px&quot;&gt;+ Add(TEntity): bool&lt;br&gt;&lt;/p&gt;&lt;p style=&quot;margin: 0px 0px 0px 4px&quot;&gt;+ Update(TEntity): bool&lt;br&gt;&lt;/p&gt;&lt;p style=&quot;margin: 0px 0px 0px 4px&quot;&gt;&lt;/p&gt;&lt;p style=&quot;margin: 0px ; margin-left: 4px&quot;&gt;+ Remove(TEntity): bool&lt;br&gt;+ Get(Func&amp;lt;IQueryable&amp;lt;TEntity&amp;gt;, IQueryable&amp;lt;TEntity&amp;gt;&amp;gt;): List&amp;lt;TEntity&amp;gt;&lt;br&gt;&lt;/p&gt;" style="verticalAlign=top;align=left;overflow=fill;fontSize=12;fontFamily=Helvetica;html=1;" parent="1" vertex="1">
          <mxGeometry x="100" y="550" width="390" height="110" as="geometry" />
        </mxCell>
        <mxCell id="VGBqMwCMSt9ttKQkOgo9-7" value="" style="endArrow=block;dashed=1;endFill=0;endSize=12;html=1;edgeStyle=orthogonalEdgeStyle;rounded=0;" parent="1" source="VGBqMwCMSt9ttKQkOgo9-6" target="VGBqMwCMSt9ttKQkOgo9-5" edge="1">
          <mxGeometry width="160" relative="1" as="geometry">
            <mxPoint x="305" y="330" as="sourcePoint" />
            <mxPoint x="405" y="200" as="targetPoint" />
          </mxGeometry>
        </mxCell>
      </root>
    </mxGraphModel>
  </diagram>
  <diagram id="s4SNmzAOuQfs6TTlEryH" name="Page-2">
    <mxGraphModel dx="868" dy="482" grid="1" gridSize="10" guides="1" tooltips="1" connect="1" arrows="1" fold="1" page="1" pageScale="1" pageWidth="1169" pageHeight="827" math="0" shadow="0">
      <root>
        <mxCell id="svSCijLYjMoTOdasfPkZ-0" />
        <mxCell id="svSCijLYjMoTOdasfPkZ-1" parent="svSCijLYjMoTOdasfPkZ-0" />
        <mxCell id="svSCijLYjMoTOdasfPkZ-5" value="&lt;p style=&quot;margin: 0px ; margin-top: 4px ; text-align: center&quot;&gt;&lt;i&gt;&amp;lt;&amp;lt;Interface&amp;gt;&amp;gt;&lt;/i&gt;&lt;br&gt;&lt;b&gt;IDataProviderService&lt;/b&gt;&lt;/p&gt;&lt;hr size=&quot;1&quot;&gt;&lt;p style=&quot;margin: 0px ; margin-left: 4px&quot;&gt;&lt;/p&gt;&lt;p style=&quot;margin: 0px ; margin-left: 4px&quot;&gt;+ GetProvider(int): DataProvider&lt;/p&gt;&lt;p style=&quot;margin: 0px ; margin-left: 4px&quot;&gt;+ AddProvider(string): void&lt;/p&gt;&lt;p style=&quot;margin: 0px ; margin-left: 4px&quot;&gt;+ DeleteProvider(int): void&lt;/p&gt;&lt;p style=&quot;margin: 0px ; margin-left: 4px&quot;&gt;+ UpdateProvider(int, string): void&lt;/p&gt;&lt;p style=&quot;margin: 0px ; margin-left: 4px&quot;&gt;+ AddDataSoutceAttribute(int, int): void&lt;/p&gt;&lt;p style=&quot;margin: 0px ; margin-left: 4px&quot;&gt;+ AddFieldAttribute(int, int): void&lt;/p&gt;&lt;p style=&quot;margin: 0px 0px 0px 4px&quot;&gt;+ DeleteDataSoutceAttribute(int, int): void&lt;/p&gt;&lt;p style=&quot;margin: 0px 0px 0px 4px&quot;&gt;+ DeleteFieldAttribute(int, int): void&lt;/p&gt;&lt;p style=&quot;margin: 0px ; margin-left: 4px&quot;&gt;&lt;br&gt;&lt;/p&gt;" style="verticalAlign=top;align=left;overflow=fill;fontSize=12;fontFamily=Helvetica;html=1;" vertex="1" parent="svSCijLYjMoTOdasfPkZ-1">
          <mxGeometry x="375" y="370" width="230" height="170" as="geometry" />
        </mxCell>
        <mxCell id="svSCijLYjMoTOdasfPkZ-6" value="&lt;p style=&quot;margin: 0px ; margin-top: 4px ; text-align: center&quot;&gt;&lt;i&gt;&amp;lt;&amp;lt;Interface&amp;gt;&amp;gt;&lt;/i&gt;&lt;br&gt;&lt;b&gt;IAttributeService&lt;/b&gt;&lt;/p&gt;&lt;hr size=&quot;1&quot;&gt;&lt;p style=&quot;margin: 0px ; margin-left: 4px&quot;&gt;&lt;/p&gt;&lt;p style=&quot;margin: 0px ; margin-left: 4px&quot;&gt;+ Add(Attribute): void&lt;br&gt;+ Delete(int): void&lt;/p&gt;&lt;p style=&quot;margin: 0px ; margin-left: 4px&quot;&gt;+ Update(Attribute): void&lt;/p&gt;&lt;p style=&quot;margin: 0px ; margin-left: 4px&quot;&gt;+ Get(id): Attribute&lt;/p&gt;&lt;p style=&quot;margin: 0px ; margin-left: 4px&quot;&gt;+ Get(): List&amp;lt;Attribute&amp;gt;&lt;br&gt;&lt;/p&gt;" style="verticalAlign=top;align=left;overflow=fill;fontSize=12;fontFamily=Helvetica;html=1;" vertex="1" parent="svSCijLYjMoTOdasfPkZ-1">
          <mxGeometry x="922" y="180" width="190" height="140" as="geometry" />
        </mxCell>
        <mxCell id="svSCijLYjMoTOdasfPkZ-15" value="&lt;p style=&quot;margin: 0px ; margin-top: 4px ; text-align: center&quot;&gt;&lt;b&gt;Attribute&lt;/b&gt;&lt;br&gt;&lt;/p&gt;&lt;hr size=&quot;1&quot;&gt;&lt;p style=&quot;margin: 0px ; margin-left: 4px&quot;&gt;+ Id: int&lt;br&gt;+ Name: string&lt;/p&gt;&lt;p style=&quot;margin: 0px ; margin-left: 4px&quot;&gt;+ Description: string&lt;/p&gt;&lt;p style=&quot;margin: 0px ; margin-left: 4px&quot;&gt;&lt;br&gt;&lt;/p&gt;" style="verticalAlign=top;align=left;overflow=fill;fontSize=12;fontFamily=Helvetica;html=1;" vertex="1" parent="svSCijLYjMoTOdasfPkZ-1">
          <mxGeometry x="662" y="205" width="190" height="90" as="geometry" />
        </mxCell>
        <mxCell id="svSCijLYjMoTOdasfPkZ-17" value="&lt;p style=&quot;margin: 0px ; margin-top: 4px ; text-align: center&quot;&gt;&lt;b&gt;DataProvider&lt;/b&gt;&lt;/p&gt;&lt;hr size=&quot;1&quot;&gt;&lt;p style=&quot;margin: 0px ; margin-left: 4px&quot;&gt;+ Id: int&lt;br&gt;+ Name: int&lt;/p&gt;&lt;p style=&quot;margin: 0px ; margin-left: 4px&quot;&gt;+ DataSourceAttributes: List&amp;lt;Attribute&amp;gt;&lt;/p&gt;&lt;p style=&quot;margin: 0px ; margin-left: 4px&quot;&gt;+ FieldAttributes: List&amp;lt;Attribute&amp;gt;&lt;/p&gt;&lt;hr size=&quot;1&quot;&gt;&lt;p style=&quot;margin: 0px ; margin-left: 4px&quot;&gt;&lt;br&gt;&lt;/p&gt;" style="verticalAlign=top;align=left;overflow=fill;fontSize=12;fontFamily=Helvetica;html=1;" vertex="1" parent="svSCijLYjMoTOdasfPkZ-1">
          <mxGeometry x="370" y="190" width="240" height="120" as="geometry" />
        </mxCell>
        <mxCell id="svSCijLYjMoTOdasfPkZ-18" value="" style="endArrow=block;dashed=1;endFill=0;endSize=12;html=1;rounded=0;edgeStyle=orthogonalEdgeStyle;exitX=0;exitY=0.5;exitDx=0;exitDy=0;" edge="1" parent="svSCijLYjMoTOdasfPkZ-1" source="svSCijLYjMoTOdasfPkZ-22" target="svSCijLYjMoTOdasfPkZ-6">
          <mxGeometry width="160" relative="1" as="geometry">
            <mxPoint x="1014.6428571428571" y="360" as="sourcePoint" />
            <mxPoint x="1122" y="450" as="targetPoint" />
          </mxGeometry>
        </mxCell>
        <mxCell id="svSCijLYjMoTOdasfPkZ-21" value="" style="endArrow=open;html=1;endSize=12;startArrow=diamondThin;startSize=14;startFill=0;edgeStyle=orthogonalEdgeStyle;align=left;verticalAlign=bottom;entryX=1;entryY=0.5;entryDx=0;entryDy=0;rounded=0;" edge="1" parent="svSCijLYjMoTOdasfPkZ-1" source="svSCijLYjMoTOdasfPkZ-22" target="svSCijLYjMoTOdasfPkZ-6">
          <mxGeometry x="-1" y="3" relative="1" as="geometry">
            <mxPoint x="912" y="510" as="sourcePoint" />
            <mxPoint x="1072" y="510" as="targetPoint" />
            <Array as="points">
              <mxPoint x="1170" y="250" />
            </Array>
          </mxGeometry>
        </mxCell>
        <mxCell id="svSCijLYjMoTOdasfPkZ-22" value="&lt;p style=&quot;margin: 0px ; margin-top: 4px ; text-align: center&quot;&gt;&lt;b style=&quot;outline: 0px&quot;&gt;CacheAtributeService&lt;/b&gt;&lt;br&gt;&lt;/p&gt;&lt;hr size=&quot;1&quot;&gt;&lt;p style=&quot;margin: 0px ; margin-left: 4px&quot;&gt;&lt;/p&gt;&lt;p style=&quot;margin: 0px ; margin-left: 4px&quot;&gt;+ CacheAttributeService(IAttributeService, ICache): void&lt;br&gt;&lt;br&gt;&lt;/p&gt;" style="verticalAlign=top;align=left;overflow=fill;fontSize=12;fontFamily=Helvetica;html=1;" vertex="1" parent="svSCijLYjMoTOdasfPkZ-1">
          <mxGeometry x="1040" y="636" width="310" height="66" as="geometry" />
        </mxCell>
        <mxCell id="svSCijLYjMoTOdasfPkZ-24" value="&lt;p style=&quot;margin: 0px ; margin-top: 4px ; text-align: center&quot;&gt;&lt;b style=&quot;outline: 0px&quot;&gt;AtributeService&lt;/b&gt;&lt;br&gt;&lt;/p&gt;&lt;hr size=&quot;1&quot;&gt;&lt;p style=&quot;margin: 0px ; margin-left: 4px&quot;&gt;&lt;/p&gt;&lt;p style=&quot;margin: 0px ; margin-left: 4px&quot;&gt;+ AttributeService(IRepository): void&lt;br&gt;&lt;br&gt;&lt;/p&gt;" style="verticalAlign=top;align=left;overflow=fill;fontSize=12;fontFamily=Helvetica;html=1;" vertex="1" parent="svSCijLYjMoTOdasfPkZ-1">
          <mxGeometry x="1040" y="715" width="310" height="60" as="geometry" />
        </mxCell>
        <mxCell id="svSCijLYjMoTOdasfPkZ-25" value="" style="endArrow=block;dashed=1;endFill=0;endSize=12;html=1;edgeStyle=orthogonalEdgeStyle;rounded=0;exitX=0;exitY=0.5;exitDx=0;exitDy=0;" edge="1" parent="svSCijLYjMoTOdasfPkZ-1" source="svSCijLYjMoTOdasfPkZ-24" target="svSCijLYjMoTOdasfPkZ-6">
          <mxGeometry width="160" relative="1" as="geometry">
            <mxPoint x="1014.6428571428571" y="360" as="sourcePoint" />
            <mxPoint x="1122" y="450" as="targetPoint" />
            <Array as="points">
              <mxPoint x="1017" y="745" />
            </Array>
          </mxGeometry>
        </mxCell>
        <mxCell id="svSCijLYjMoTOdasfPkZ-26" value="&lt;p style=&quot;margin: 0px ; margin-top: 4px ; text-align: center&quot;&gt;&lt;b style=&quot;outline: 0px&quot;&gt;DataProviderService&lt;/b&gt;&lt;br&gt;&lt;/p&gt;&lt;hr size=&quot;1&quot;&gt;&lt;p style=&quot;margin: 0px ; margin-left: 4px&quot;&gt;&lt;/p&gt;&lt;p style=&quot;margin: 0px ; margin-left: 4px&quot;&gt;+ DataProviderService(IRepository, IAttributeService): void&lt;br&gt;&lt;br&gt;&lt;/p&gt;" style="verticalAlign=top;align=left;overflow=fill;fontSize=12;fontFamily=Helvetica;html=1;" vertex="1" parent="svSCijLYjMoTOdasfPkZ-1">
          <mxGeometry x="522" y="670" width="360" height="60" as="geometry" />
        </mxCell>
        <mxCell id="svSCijLYjMoTOdasfPkZ-27" value="" style="endArrow=block;dashed=1;endFill=0;endSize=12;html=1;edgeStyle=orthogonalEdgeStyle;rounded=0;" edge="1" parent="svSCijLYjMoTOdasfPkZ-1" source="svSCijLYjMoTOdasfPkZ-26" target="svSCijLYjMoTOdasfPkZ-5">
          <mxGeometry width="160" relative="1" as="geometry">
            <mxPoint x="188" y="430" as="sourcePoint" />
            <mxPoint x="472" y="600" as="targetPoint" />
            <Array as="points">
              <mxPoint x="490" y="700" />
            </Array>
          </mxGeometry>
        </mxCell>
        <mxCell id="svSCijLYjMoTOdasfPkZ-29" value="&lt;p style=&quot;margin: 0px ; margin-top: 4px ; text-align: center&quot;&gt;&lt;b style=&quot;outline: 0px&quot;&gt;CacheDataProviderService&lt;/b&gt;&lt;br&gt;&lt;/p&gt;&lt;hr size=&quot;1&quot;&gt;&lt;p style=&quot;margin: 0px ; margin-left: 4px&quot;&gt;&lt;/p&gt;&lt;p style=&quot;margin: 0px ; margin-left: 4px&quot;&gt;+ CacheDataProviderService(IDataProviderService, ICache): void&lt;br&gt;&lt;br&gt;&lt;/p&gt;" style="verticalAlign=top;align=left;overflow=fill;fontSize=12;fontFamily=Helvetica;html=1;" vertex="1" parent="svSCijLYjMoTOdasfPkZ-1">
          <mxGeometry x="522" y="590" width="360" height="60" as="geometry" />
        </mxCell>
        <mxCell id="svSCijLYjMoTOdasfPkZ-31" value="" style="endArrow=open;html=1;endSize=12;startArrow=diamondThin;startSize=14;startFill=0;edgeStyle=orthogonalEdgeStyle;align=left;verticalAlign=bottom;rounded=0;" edge="1" parent="svSCijLYjMoTOdasfPkZ-1" source="svSCijLYjMoTOdasfPkZ-17" target="svSCijLYjMoTOdasfPkZ-15">
          <mxGeometry x="-1" y="3" relative="1" as="geometry">
            <mxPoint x="462" y="350" as="sourcePoint" />
            <mxPoint x="622" y="350" as="targetPoint" />
          </mxGeometry>
        </mxCell>
        <mxCell id="svSCijLYjMoTOdasfPkZ-32" value="" style="endArrow=open;endFill=1;endSize=12;html=1;edgeStyle=orthogonalEdgeStyle;rounded=0;" edge="1" parent="svSCijLYjMoTOdasfPkZ-1" source="svSCijLYjMoTOdasfPkZ-6" target="svSCijLYjMoTOdasfPkZ-15">
          <mxGeometry width="160" relative="1" as="geometry">
            <mxPoint x="562" y="290" as="sourcePoint" />
            <mxPoint x="722" y="290" as="targetPoint" />
          </mxGeometry>
        </mxCell>
        <mxCell id="svSCijLYjMoTOdasfPkZ-42" value="" style="endArrow=block;dashed=1;endFill=0;endSize=12;html=1;rounded=0;edgeStyle=orthogonalEdgeStyle;exitX=0;exitY=0.5;exitDx=0;exitDy=0;" edge="1" parent="svSCijLYjMoTOdasfPkZ-1" source="svSCijLYjMoTOdasfPkZ-29" target="svSCijLYjMoTOdasfPkZ-5">
          <mxGeometry width="160" relative="1" as="geometry">
            <mxPoint x="162" y="410" as="sourcePoint" />
            <mxPoint x="472" y="650" as="targetPoint" />
          </mxGeometry>
        </mxCell>
        <mxCell id="svSCijLYjMoTOdasfPkZ-43" value="" style="endArrow=open;html=1;endSize=12;startArrow=diamondThin;startSize=14;startFill=0;edgeStyle=orthogonalEdgeStyle;align=left;verticalAlign=bottom;rounded=0;" edge="1" parent="svSCijLYjMoTOdasfPkZ-1" source="svSCijLYjMoTOdasfPkZ-29" target="svSCijLYjMoTOdasfPkZ-5">
          <mxGeometry x="-1" y="3" relative="1" as="geometry">
            <mxPoint x="912" y="635" as="sourcePoint" />
            <mxPoint x="852" y="470" as="targetPoint" />
            <Array as="points">
              <mxPoint x="722" y="490" />
            </Array>
          </mxGeometry>
        </mxCell>
        <mxCell id="svSCijLYjMoTOdasfPkZ-44" value="" style="endArrow=open;endFill=1;endSize=12;html=1;edgeStyle=orthogonalEdgeStyle;rounded=0;exitX=0.5;exitY=0;exitDx=0;exitDy=0;" edge="1" parent="svSCijLYjMoTOdasfPkZ-1" source="svSCijLYjMoTOdasfPkZ-5" target="svSCijLYjMoTOdasfPkZ-17">
          <mxGeometry width="160" relative="1" as="geometry">
            <mxPoint x="1052" y="260" as="sourcePoint" />
            <mxPoint x="962" y="150" as="targetPoint" />
          </mxGeometry>
        </mxCell>
        <mxCell id="svSCijLYjMoTOdasfPkZ-46" value="&lt;p style=&quot;margin: 0px ; margin-top: 4px ; text-align: center&quot;&gt;&lt;b&gt;Field&lt;/b&gt;&lt;/p&gt;&lt;hr size=&quot;1&quot;&gt;&lt;p style=&quot;margin: 0px ; margin-left: 4px&quot;&gt;+ Id: int&lt;br&gt;+ Name: int&lt;/p&gt;&lt;p style=&quot;margin: 0px ; margin-left: 4px&quot;&gt;+ DataSourceId:int&lt;/p&gt;&lt;p style=&quot;margin: 0px ; margin-left: 4px&quot;&gt;+ DataType: DataType&lt;br&gt;&lt;/p&gt;&lt;p style=&quot;margin: 0px ; margin-left: 4px&quot;&gt;+ AttributeValus: List&amp;lt;AttributeValue&amp;gt;&lt;/p&gt;&lt;hr size=&quot;1&quot;&gt;&lt;p style=&quot;margin: 0px ; margin-left: 4px&quot;&gt;&lt;br&gt;&lt;/p&gt;" style="verticalAlign=top;align=left;overflow=fill;fontSize=12;fontFamily=Helvetica;html=1;" vertex="1" parent="svSCijLYjMoTOdasfPkZ-1">
          <mxGeometry x="45" y="26" width="250" height="130" as="geometry" />
        </mxCell>
        <mxCell id="svSCijLYjMoTOdasfPkZ-47" value="&lt;p style=&quot;margin: 0px ; margin-top: 4px ; text-align: center&quot;&gt;&lt;i&gt;&amp;lt;&amp;lt;Interface&amp;gt;&amp;gt;&lt;/i&gt;&lt;br&gt;&lt;b&gt;IFiedService&lt;/b&gt;&lt;/p&gt;&lt;hr size=&quot;1&quot;&gt;&lt;p style=&quot;margin: 0px ; margin-left: 4px&quot;&gt;&lt;/p&gt;&lt;p style=&quot;margin: 0px ; margin-left: 4px&quot;&gt;+ GetField(int): Field&lt;/p&gt;&lt;p style=&quot;margin: 0px ; margin-left: 4px&quot;&gt;+ GetFieldsByDataSourceId(int): List&amp;lt;Field&amp;gt;&lt;br&gt;&lt;/p&gt;&lt;p style=&quot;margin: 0px ; margin-left: 4px&quot;&gt;+ AddField(Field): void&lt;/p&gt;&lt;p style=&quot;margin: 0px ; margin-left: 4px&quot;&gt;+ DeleteField(int): void&lt;/p&gt;&lt;p style=&quot;margin: 0px ; margin-left: 4px&quot;&gt;+ UpdateField(Field): void&lt;/p&gt;&lt;p style=&quot;margin: 0px ; margin-left: 4px&quot;&gt;+ AddAttributeValue(int, int, int, string): void&lt;/p&gt;&lt;p style=&quot;margin: 0px ; margin-left: 4px&quot;&gt;+ UpdateAttributeValue(int, int, int, string): void&lt;br&gt;&lt;/p&gt;&lt;p style=&quot;margin: 0px 0px 0px 4px&quot;&gt;+ DeleteAttributeValue(int, int, int): void&lt;br&gt;&lt;/p&gt;&lt;p style=&quot;margin: 0px ; margin-left: 4px&quot;&gt;&lt;br&gt;&lt;/p&gt;" style="verticalAlign=top;align=left;overflow=fill;fontSize=12;fontFamily=Helvetica;html=1;" vertex="1" parent="svSCijLYjMoTOdasfPkZ-1">
          <mxGeometry x="40" y="242" width="260" height="170" as="geometry" />
        </mxCell>
        <mxCell id="svSCijLYjMoTOdasfPkZ-48" value="&lt;p style=&quot;margin: 0px ; margin-top: 4px ; text-align: center&quot;&gt;&lt;b style=&quot;outline: 0px&quot;&gt;FieldService&lt;/b&gt;&lt;br&gt;&lt;/p&gt;&lt;hr size=&quot;1&quot;&gt;&lt;p style=&quot;margin: 0px ; margin-left: 4px&quot;&gt;&lt;/p&gt;&lt;p style=&quot;margin: 0px ; margin-left: 4px&quot;&gt;+ FieldService(IRepository, IAttributeService): void&lt;br&gt;&lt;br&gt;&lt;/p&gt;" style="verticalAlign=top;align=left;overflow=fill;fontSize=12;fontFamily=Helvetica;html=1;" vertex="1" parent="svSCijLYjMoTOdasfPkZ-1">
          <mxGeometry x="180" y="660" width="280" height="60" as="geometry" />
        </mxCell>
        <mxCell id="svSCijLYjMoTOdasfPkZ-50" value="&lt;p style=&quot;margin: 0px ; margin-top: 4px ; text-align: center&quot;&gt;&lt;b style=&quot;outline: 0px&quot;&gt;CacheFieldService&lt;/b&gt;&lt;br&gt;&lt;/p&gt;&lt;hr size=&quot;1&quot;&gt;&lt;p style=&quot;margin: 0px ; margin-left: 4px&quot;&gt;&lt;/p&gt;&lt;p style=&quot;margin: 0px ; margin-left: 4px&quot;&gt;+ CacheFieldService(IFieldService, ICache): void&lt;br&gt;&lt;br&gt;&lt;/p&gt;" style="verticalAlign=top;align=left;overflow=fill;fontSize=12;fontFamily=Helvetica;html=1;" vertex="1" parent="svSCijLYjMoTOdasfPkZ-1">
          <mxGeometry x="180" y="570" width="280" height="60" as="geometry" />
        </mxCell>
        <mxCell id="svSCijLYjMoTOdasfPkZ-51" value="" style="endArrow=block;dashed=1;endFill=0;endSize=12;html=1;rounded=0;edgeStyle=orthogonalEdgeStyle;exitX=0;exitY=0.5;exitDx=0;exitDy=0;" edge="1" parent="svSCijLYjMoTOdasfPkZ-1" source="svSCijLYjMoTOdasfPkZ-50" target="svSCijLYjMoTOdasfPkZ-47">
          <mxGeometry width="160" relative="1" as="geometry">
            <mxPoint x="-200" y="306" as="sourcePoint" />
            <mxPoint x="115" y="436" as="targetPoint" />
          </mxGeometry>
        </mxCell>
        <mxCell id="svSCijLYjMoTOdasfPkZ-52" value="" style="endArrow=open;html=1;endSize=12;startArrow=diamondThin;startSize=14;startFill=0;edgeStyle=orthogonalEdgeStyle;align=left;verticalAlign=bottom;rounded=0;" edge="1" parent="svSCijLYjMoTOdasfPkZ-1" source="svSCijLYjMoTOdasfPkZ-50" target="svSCijLYjMoTOdasfPkZ-47">
          <mxGeometry x="-1" y="3" relative="1" as="geometry">
            <mxPoint x="330" y="391" as="sourcePoint" />
            <mxPoint x="230" y="386" as="targetPoint" />
            <Array as="points">
              <mxPoint x="330" y="326" />
            </Array>
          </mxGeometry>
        </mxCell>
        <mxCell id="svSCijLYjMoTOdasfPkZ-53" value="" style="endArrow=block;dashed=1;endFill=0;endSize=12;html=1;rounded=0;edgeStyle=orthogonalEdgeStyle;exitX=0;exitY=0.5;exitDx=0;exitDy=0;" edge="1" parent="svSCijLYjMoTOdasfPkZ-1" source="svSCijLYjMoTOdasfPkZ-48" target="svSCijLYjMoTOdasfPkZ-47">
          <mxGeometry width="160" relative="1" as="geometry">
            <mxPoint x="-200" y="306" as="sourcePoint" />
            <mxPoint x="115" y="436" as="targetPoint" />
          </mxGeometry>
        </mxCell>
        <mxCell id="svSCijLYjMoTOdasfPkZ-54" value="" style="endArrow=open;endFill=1;endSize=12;html=1;edgeStyle=orthogonalEdgeStyle;rounded=0;" edge="1" parent="svSCijLYjMoTOdasfPkZ-1" source="svSCijLYjMoTOdasfPkZ-47" target="svSCijLYjMoTOdasfPkZ-46">
          <mxGeometry width="160" relative="1" as="geometry">
            <mxPoint x="695" y="381" as="sourcePoint" />
            <mxPoint x="695" y="321" as="targetPoint" />
          </mxGeometry>
        </mxCell>
        <mxCell id="svSCijLYjMoTOdasfPkZ-55" value="&lt;p style=&quot;margin: 0px ; margin-top: 4px ; text-align: center&quot;&gt;&lt;b&gt;AttributeValue&lt;/b&gt;&lt;br&gt;&lt;/p&gt;&lt;hr size=&quot;1&quot;&gt;&lt;p style=&quot;margin: 0px ; margin-left: 4px&quot;&gt;+ Id: int&lt;br&gt;+ Name: string&lt;/p&gt;&lt;p style=&quot;margin: 0px ; margin-left: 4px&quot;&gt;+ Description: string&lt;/p&gt;&lt;p style=&quot;margin: 0px ; margin-left: 4px&quot;&gt;+ Value: string&lt;/p&gt;&lt;p style=&quot;margin: 0px ; margin-left: 4px&quot;&gt;&lt;br&gt;&lt;/p&gt;" style="verticalAlign=top;align=left;overflow=fill;fontSize=12;fontFamily=Helvetica;html=1;" vertex="1" parent="svSCijLYjMoTOdasfPkZ-1">
          <mxGeometry x="662" y="66" width="190" height="90" as="geometry" />
        </mxCell>
        <mxCell id="svSCijLYjMoTOdasfPkZ-56" value="" style="endArrow=block;endSize=16;endFill=0;html=1;entryX=0.5;entryY=0;entryDx=0;entryDy=0;edgeStyle=orthogonalEdgeStyle;rounded=0;" edge="1" parent="svSCijLYjMoTOdasfPkZ-1" source="svSCijLYjMoTOdasfPkZ-55" target="svSCijLYjMoTOdasfPkZ-15">
          <mxGeometry width="160" relative="1" as="geometry">
            <mxPoint x="362" y="90" as="sourcePoint" />
            <mxPoint x="522" y="90" as="targetPoint" />
          </mxGeometry>
        </mxCell>
        <mxCell id="svSCijLYjMoTOdasfPkZ-58" value="" style="endArrow=open;html=1;endSize=12;startArrow=diamondThin;startSize=14;startFill=0;edgeStyle=orthogonalEdgeStyle;align=left;verticalAlign=bottom;rounded=0;" edge="1" parent="svSCijLYjMoTOdasfPkZ-1" source="svSCijLYjMoTOdasfPkZ-46" target="svSCijLYjMoTOdasfPkZ-55">
          <mxGeometry x="-1" y="3" relative="1" as="geometry">
            <mxPoint x="112" y="104.5" as="sourcePoint" />
            <mxPoint x="257" y="104.5" as="targetPoint" />
            <Array as="points">
              <mxPoint x="112" y="105" />
              <mxPoint x="112" y="105" />
            </Array>
          </mxGeometry>
        </mxCell>
        <mxCell id="svSCijLYjMoTOdasfPkZ-59" value="&lt;p style=&quot;margin: 0px ; margin-top: 4px ; text-align: center&quot;&gt;&lt;b&gt;DataSource&lt;/b&gt;&lt;/p&gt;&lt;hr size=&quot;1&quot;&gt;&lt;p style=&quot;margin: 0px ; margin-left: 4px&quot;&gt;+ Id: int&lt;br&gt;+ Name: string&lt;/p&gt;&lt;p style=&quot;margin: 0px ; margin-left: 4px&quot;&gt;+ DataProviderId:int&lt;/p&gt;&lt;p style=&quot;margin: 0px ; margin-left: 4px&quot;&gt;+ Description: string&lt;br&gt;&lt;/p&gt;&lt;p style=&quot;margin: 0px ; margin-left: 4px&quot;&gt;+ Fields: List&amp;lt;Field&amp;gt;&lt;/p&gt;&lt;p style=&quot;margin: 0px ; margin-left: 4px&quot;&gt;+ AttributeValus: List&amp;lt;AttributeValue&amp;gt;&lt;/p&gt;&lt;hr size=&quot;1&quot;&gt;&lt;p style=&quot;margin: 0px ; margin-left: 4px&quot;&gt;&lt;br&gt;&lt;/p&gt;" style="verticalAlign=top;align=left;overflow=fill;fontSize=12;fontFamily=Helvetica;html=1;" vertex="1" parent="svSCijLYjMoTOdasfPkZ-1">
          <mxGeometry x="1677" y="20" width="250" height="150" as="geometry" />
        </mxCell>
        <mxCell id="svSCijLYjMoTOdasfPkZ-60" value="&lt;p style=&quot;margin: 0px ; margin-top: 4px ; text-align: center&quot;&gt;&lt;i&gt;&amp;lt;&amp;lt;Interface&amp;gt;&amp;gt;&lt;/i&gt;&lt;br&gt;&lt;b&gt;IDataSourceService&lt;/b&gt;&lt;/p&gt;&lt;hr size=&quot;1&quot;&gt;&lt;p style=&quot;margin: 0px ; margin-left: 4px&quot;&gt;&lt;/p&gt;&lt;p style=&quot;margin: 0px ; margin-left: 4px&quot;&gt;+ GetDataSource(int): DataSource&lt;/p&gt;&lt;p style=&quot;margin: 0px ; margin-left: 4px&quot;&gt;&lt;span&gt;+ AddDataSource(string, string, int): void&lt;/span&gt;&lt;br&gt;&lt;/p&gt;&lt;p style=&quot;margin: 0px ; margin-left: 4px&quot;&gt;+ DeleteDataSource(int): void&lt;/p&gt;&lt;p style=&quot;margin: 0px ; margin-left: 4px&quot;&gt;+ UpdateDataSource(DataSource): void&lt;/p&gt;&lt;p style=&quot;margin: 0px ; margin-left: 4px&quot;&gt;+ AddAttributeValue(int, int, int, string): void&lt;/p&gt;&lt;p style=&quot;margin: 0px ; margin-left: 4px&quot;&gt;+ UpdateAttributeValue(int, int, int, string): void&lt;br&gt;&lt;/p&gt;&lt;p style=&quot;margin: 0px 0px 0px 4px&quot;&gt;+ DeleteAttributeValue(int, int, int): void&lt;br&gt;&lt;/p&gt;&lt;p style=&quot;margin: 0px ; margin-left: 4px&quot;&gt;&lt;br&gt;&lt;/p&gt;" style="verticalAlign=top;align=left;overflow=fill;fontSize=12;fontFamily=Helvetica;html=1;" vertex="1" parent="svSCijLYjMoTOdasfPkZ-1">
          <mxGeometry x="1672" y="216" width="260" height="170" as="geometry" />
        </mxCell>
        <mxCell id="svSCijLYjMoTOdasfPkZ-61" value="&lt;p style=&quot;margin: 0px ; margin-top: 4px ; text-align: center&quot;&gt;&lt;b style=&quot;outline: 0px&quot;&gt;DataSourceService&lt;/b&gt;&lt;br&gt;&lt;/p&gt;&lt;hr size=&quot;1&quot;&gt;&lt;p style=&quot;margin: 0px ; margin-left: 4px&quot;&gt;&lt;/p&gt;&lt;p style=&quot;margin: 0px ; margin-left: 4px&quot;&gt;+ DataSourceService(IRepository, IFieldService, IAttributeService): void&lt;br&gt;&lt;br&gt;&lt;/p&gt;" style="verticalAlign=top;align=left;overflow=fill;fontSize=12;fontFamily=Helvetica;html=1;" vertex="1" parent="svSCijLYjMoTOdasfPkZ-1">
          <mxGeometry x="1842" y="496" width="390" height="60" as="geometry" />
        </mxCell>
        <mxCell id="svSCijLYjMoTOdasfPkZ-62" value="&lt;p style=&quot;margin: 0px ; margin-top: 4px ; text-align: center&quot;&gt;&lt;b style=&quot;outline: 0px&quot;&gt;CacheDataSourceService&lt;/b&gt;&lt;br&gt;&lt;/p&gt;&lt;hr size=&quot;1&quot;&gt;&lt;p style=&quot;margin: 0px ; margin-left: 4px&quot;&gt;&lt;/p&gt;&lt;p style=&quot;margin: 0px ; margin-left: 4px&quot;&gt;+ CacheDataSourceService(IDataSourceService, ICache): void&lt;br&gt;&lt;br&gt;&lt;/p&gt;" style="verticalAlign=top;align=left;overflow=fill;fontSize=12;fontFamily=Helvetica;html=1;" vertex="1" parent="svSCijLYjMoTOdasfPkZ-1">
          <mxGeometry x="1842" y="416" width="390" height="60" as="geometry" />
        </mxCell>
        <mxCell id="svSCijLYjMoTOdasfPkZ-63" value="" style="endArrow=block;dashed=1;endFill=0;endSize=12;html=1;rounded=0;edgeStyle=orthogonalEdgeStyle;exitX=0;exitY=0.5;exitDx=0;exitDy=0;" edge="1" parent="svSCijLYjMoTOdasfPkZ-1" source="svSCijLYjMoTOdasfPkZ-62" target="svSCijLYjMoTOdasfPkZ-60">
          <mxGeometry width="160" relative="1" as="geometry">
            <mxPoint x="1482" y="281" as="sourcePoint" />
            <mxPoint x="1797" y="411" as="targetPoint" />
          </mxGeometry>
        </mxCell>
        <mxCell id="svSCijLYjMoTOdasfPkZ-64" value="" style="endArrow=open;html=1;endSize=12;startArrow=diamondThin;startSize=14;startFill=0;edgeStyle=orthogonalEdgeStyle;align=left;verticalAlign=bottom;rounded=0;" edge="1" parent="svSCijLYjMoTOdasfPkZ-1" source="svSCijLYjMoTOdasfPkZ-62" target="svSCijLYjMoTOdasfPkZ-60">
          <mxGeometry x="-1" y="3" relative="1" as="geometry">
            <mxPoint x="2232" y="506" as="sourcePoint" />
            <mxPoint x="1912" y="361" as="targetPoint" />
            <Array as="points">
              <mxPoint x="2042" y="336" />
            </Array>
          </mxGeometry>
        </mxCell>
        <mxCell id="svSCijLYjMoTOdasfPkZ-65" value="" style="endArrow=block;dashed=1;endFill=0;endSize=12;html=1;rounded=0;edgeStyle=orthogonalEdgeStyle;exitX=0;exitY=0.5;exitDx=0;exitDy=0;" edge="1" parent="svSCijLYjMoTOdasfPkZ-1" source="svSCijLYjMoTOdasfPkZ-61" target="svSCijLYjMoTOdasfPkZ-60">
          <mxGeometry width="160" relative="1" as="geometry">
            <mxPoint x="1482" y="281" as="sourcePoint" />
            <mxPoint x="1797" y="411" as="targetPoint" />
          </mxGeometry>
        </mxCell>
        <mxCell id="svSCijLYjMoTOdasfPkZ-66" value="" style="endArrow=open;endFill=1;endSize=12;html=1;edgeStyle=orthogonalEdgeStyle;rounded=0;" edge="1" parent="svSCijLYjMoTOdasfPkZ-1" source="svSCijLYjMoTOdasfPkZ-60" target="svSCijLYjMoTOdasfPkZ-59">
          <mxGeometry width="160" relative="1" as="geometry">
            <mxPoint x="2377" y="420" as="sourcePoint" />
            <mxPoint x="2377" y="360" as="targetPoint" />
          </mxGeometry>
        </mxCell>
        <mxCell id="svSCijLYjMoTOdasfPkZ-67" value="" style="endArrow=open;html=1;endSize=12;startArrow=diamondThin;startSize=14;startFill=0;edgeStyle=orthogonalEdgeStyle;align=left;verticalAlign=bottom;rounded=0;" edge="1" parent="svSCijLYjMoTOdasfPkZ-1" source="svSCijLYjMoTOdasfPkZ-59" target="svSCijLYjMoTOdasfPkZ-55">
          <mxGeometry x="-1" y="3" relative="1" as="geometry">
            <mxPoint x="1512" y="80" as="sourcePoint" />
            <mxPoint x="752" y="115" as="targetPoint" />
            <Array as="points">
              <mxPoint x="1342" y="95" />
              <mxPoint x="1342" y="95" />
            </Array>
          </mxGeometry>
        </mxCell>
        <mxCell id="svSCijLYjMoTOdasfPkZ-68" value="&lt;p style=&quot;margin: 0px ; margin-top: 4px ; text-align: center&quot;&gt;&lt;b&gt;Directory&lt;/b&gt;&lt;/p&gt;&lt;hr size=&quot;1&quot;&gt;&lt;p style=&quot;margin: 0px ; margin-left: 4px&quot;&gt;+ Id: int&lt;br&gt;+ Title: string&lt;/p&gt;&lt;p style=&quot;margin: 0px ; margin-left: 4px&quot;&gt;+ AccessObjectId:int&lt;/p&gt;&lt;p style=&quot;margin: 0px ; margin-left: 4px&quot;&gt;+ DataSource: DataSource&lt;/p&gt;&lt;hr size=&quot;1&quot;&gt;&lt;p style=&quot;margin: 0px ; margin-left: 4px&quot;&gt;&lt;br&gt;&lt;/p&gt;" style="verticalAlign=top;align=left;overflow=fill;fontSize=12;fontFamily=Helvetica;html=1;" vertex="1" parent="svSCijLYjMoTOdasfPkZ-1">
          <mxGeometry x="1255" y="180" width="250" height="120" as="geometry" />
        </mxCell>
        <mxCell id="svSCijLYjMoTOdasfPkZ-69" value="&lt;p style=&quot;margin: 0px ; margin-top: 4px ; text-align: center&quot;&gt;&lt;i&gt;&amp;lt;&amp;lt;Interface&amp;gt;&amp;gt;&lt;/i&gt;&lt;br&gt;&lt;b&gt;IDirectoryService&lt;/b&gt;&lt;/p&gt;&lt;hr size=&quot;1&quot;&gt;&lt;p style=&quot;margin: 0px ; margin-left: 4px&quot;&gt;&lt;/p&gt;&lt;p style=&quot;margin: 0px ; margin-left: 4px&quot;&gt;+ GetDirectory(int): Directory&lt;/p&gt;&lt;p style=&quot;margin: 0px ; margin-left: 4px&quot;&gt;&lt;span&gt;+ AddDirectory(string, int, int): void&lt;/span&gt;&lt;br&gt;&lt;/p&gt;&lt;p style=&quot;margin: 0px ; margin-left: 4px&quot;&gt;+ DeleteDirectory(int): void&lt;/p&gt;&lt;p style=&quot;margin: 0px ; margin-left: 4px&quot;&gt;+ UpdateDirectory(Directory): void&lt;/p&gt;&lt;p style=&quot;margin: 0px ; margin-left: 4px&quot;&gt;&lt;br&gt;&lt;/p&gt;&lt;p style=&quot;margin: 0px ; margin-left: 4px&quot;&gt;&lt;br&gt;&lt;/p&gt;" style="verticalAlign=top;align=left;overflow=fill;fontSize=12;fontFamily=Helvetica;html=1;" vertex="1" parent="svSCijLYjMoTOdasfPkZ-1">
          <mxGeometry x="1250" y="330" width="260" height="120" as="geometry" />
        </mxCell>
        <mxCell id="svSCijLYjMoTOdasfPkZ-70" value="&lt;p style=&quot;margin: 0px ; margin-top: 4px ; text-align: center&quot;&gt;&lt;b style=&quot;outline: 0px&quot;&gt;DirectoryService&lt;/b&gt;&lt;br&gt;&lt;/p&gt;&lt;hr size=&quot;1&quot;&gt;&lt;p style=&quot;margin: 0px ; margin-left: 4px&quot;&gt;&lt;/p&gt;&lt;p style=&quot;margin: 0px ; margin-left: 4px&quot;&gt;+ DirectoryService(IRepository, IDataSourceService): void&lt;br&gt;&lt;br&gt;&lt;/p&gt;" style="verticalAlign=top;align=left;overflow=fill;fontSize=12;fontFamily=Helvetica;html=1;" vertex="1" parent="svSCijLYjMoTOdasfPkZ-1">
          <mxGeometry x="1410" y="670" width="320" height="60" as="geometry" />
        </mxCell>
        <mxCell id="svSCijLYjMoTOdasfPkZ-71" value="&lt;p style=&quot;margin: 0px ; margin-top: 4px ; text-align: center&quot;&gt;&lt;b style=&quot;outline: 0px&quot;&gt;CacheDataSourceService&lt;/b&gt;&lt;br&gt;&lt;/p&gt;&lt;hr size=&quot;1&quot;&gt;&lt;p style=&quot;margin: 0px ; margin-left: 4px&quot;&gt;&lt;/p&gt;&lt;p style=&quot;margin: 0px ; margin-left: 4px&quot;&gt;+ CacheDirectoryService(IDirectoryService, ICache): void&lt;br&gt;&lt;br&gt;&lt;/p&gt;" style="verticalAlign=top;align=left;overflow=fill;fontSize=12;fontFamily=Helvetica;html=1;" vertex="1" parent="svSCijLYjMoTOdasfPkZ-1">
          <mxGeometry x="1410" y="580" width="320" height="60" as="geometry" />
        </mxCell>
        <mxCell id="svSCijLYjMoTOdasfPkZ-72" value="" style="endArrow=block;dashed=1;endFill=0;endSize=12;html=1;rounded=0;edgeStyle=orthogonalEdgeStyle;exitX=0;exitY=0.5;exitDx=0;exitDy=0;" edge="1" parent="svSCijLYjMoTOdasfPkZ-1" source="svSCijLYjMoTOdasfPkZ-71" target="svSCijLYjMoTOdasfPkZ-69">
          <mxGeometry width="160" relative="1" as="geometry">
            <mxPoint x="1122" y="551" as="sourcePoint" />
            <mxPoint x="1437" y="681" as="targetPoint" />
          </mxGeometry>
        </mxCell>
        <mxCell id="svSCijLYjMoTOdasfPkZ-73" value="" style="endArrow=open;html=1;endSize=12;startArrow=diamondThin;startSize=14;startFill=0;edgeStyle=orthogonalEdgeStyle;align=left;verticalAlign=bottom;rounded=0;" edge="1" parent="svSCijLYjMoTOdasfPkZ-1" source="svSCijLYjMoTOdasfPkZ-71" target="svSCijLYjMoTOdasfPkZ-69">
          <mxGeometry x="-1" y="3" relative="1" as="geometry">
            <mxPoint x="1872" y="776" as="sourcePoint" />
            <mxPoint x="1552" y="631" as="targetPoint" />
            <Array as="points">
              <mxPoint x="1662" y="402" />
            </Array>
          </mxGeometry>
        </mxCell>
        <mxCell id="svSCijLYjMoTOdasfPkZ-74" value="" style="endArrow=block;dashed=1;endFill=0;endSize=12;html=1;rounded=0;edgeStyle=orthogonalEdgeStyle;exitX=0;exitY=0.5;exitDx=0;exitDy=0;" edge="1" parent="svSCijLYjMoTOdasfPkZ-1" source="svSCijLYjMoTOdasfPkZ-70" target="svSCijLYjMoTOdasfPkZ-69">
          <mxGeometry width="160" relative="1" as="geometry">
            <mxPoint x="1122" y="551" as="sourcePoint" />
            <mxPoint x="1437" y="681" as="targetPoint" />
          </mxGeometry>
        </mxCell>
        <mxCell id="svSCijLYjMoTOdasfPkZ-75" value="" style="endArrow=open;endFill=1;endSize=12;html=1;edgeStyle=orthogonalEdgeStyle;rounded=0;" edge="1" parent="svSCijLYjMoTOdasfPkZ-1" source="svSCijLYjMoTOdasfPkZ-69" target="svSCijLYjMoTOdasfPkZ-68">
          <mxGeometry width="160" relative="1" as="geometry">
            <mxPoint x="1955" y="510" as="sourcePoint" />
            <mxPoint x="1955" y="450" as="targetPoint" />
          </mxGeometry>
        </mxCell>
        <mxCell id="svSCijLYjMoTOdasfPkZ-76" value="" style="endArrow=open;html=1;endSize=12;startArrow=diamondThin;startSize=14;startFill=0;edgeStyle=orthogonalEdgeStyle;align=left;verticalAlign=bottom;rounded=0;" edge="1" parent="svSCijLYjMoTOdasfPkZ-1" source="svSCijLYjMoTOdasfPkZ-59" target="svSCijLYjMoTOdasfPkZ-46">
          <mxGeometry x="-1" y="3" relative="1" as="geometry">
            <mxPoint x="1672" y="40" as="sourcePoint" />
            <mxPoint x="92" y="60" as="targetPoint" />
            <Array as="points">
              <mxPoint x="1262" y="40" />
              <mxPoint x="1262" y="40" />
            </Array>
          </mxGeometry>
        </mxCell>
        <mxCell id="svSCijLYjMoTOdasfPkZ-79" value="" style="endArrow=open;html=1;endSize=12;startArrow=diamondThin;startSize=14;startFill=0;edgeStyle=orthogonalEdgeStyle;align=left;verticalAlign=bottom;rounded=0;" edge="1" parent="svSCijLYjMoTOdasfPkZ-1" source="svSCijLYjMoTOdasfPkZ-68" target="svSCijLYjMoTOdasfPkZ-59">
          <mxGeometry x="-1" y="3" relative="1" as="geometry">
            <mxPoint x="1622" y="555" as="sourcePoint" />
            <mxPoint x="1532" y="435" as="targetPoint" />
            <Array as="points">
              <mxPoint x="1460" y="140" />
            </Array>
          </mxGeometry>
        </mxCell>
        <mxCell id="svSCijLYjMoTOdasfPkZ-80" value="" style="endArrow=open;html=1;endSize=12;startArrow=diamondThin;startSize=14;startFill=0;edgeStyle=orthogonalEdgeStyle;align=left;verticalAlign=bottom;rounded=0;" edge="1" parent="svSCijLYjMoTOdasfPkZ-1" source="svSCijLYjMoTOdasfPkZ-70" target="svSCijLYjMoTOdasfPkZ-60">
          <mxGeometry x="-1" y="3" relative="1" as="geometry">
            <mxPoint x="2112" y="1030" as="sourcePoint" />
            <mxPoint x="2112" y="840" as="targetPoint" />
            <Array as="points">
              <mxPoint x="2282" y="700" />
              <mxPoint x="2282" y="296" />
            </Array>
          </mxGeometry>
        </mxCell>
        <mxCell id="svSCijLYjMoTOdasfPkZ-82" value="" style="endArrow=open;html=1;endSize=12;startArrow=diamondThin;startSize=14;startFill=0;edgeStyle=orthogonalEdgeStyle;align=left;verticalAlign=bottom;rounded=0;" edge="1" parent="svSCijLYjMoTOdasfPkZ-1" source="svSCijLYjMoTOdasfPkZ-26" target="svSCijLYjMoTOdasfPkZ-6">
          <mxGeometry x="-1" y="3" relative="1" as="geometry">
            <mxPoint x="1022" y="680" as="sourcePoint" />
            <mxPoint x="892" y="580" as="targetPoint" />
            <Array as="points">
              <mxPoint x="972" y="700" />
            </Array>
          </mxGeometry>
        </mxCell>
      </root>
    </mxGraphModel>
  </diagram>
</mxfile>
